<mxfile host="app.diagrams.net" agent="Mozilla/5.0 (Windows NT 10.0; Win64; x64) AppleWebKit/537.36 (KHTML, like Gecko) Chrome/130.0.0.0 Safari/537.36" version="24.8.3">
  <diagram name="Сторінка-1" id="8JvMkK18KHWJuDBvX5Ev">
    <mxGraphModel grid="1" page="1" gridSize="10" guides="1" tooltips="1" connect="1" arrows="1" fold="1" pageScale="1" pageWidth="827" pageHeight="1169" math="0" shadow="0">
      <root>
        <mxCell id="0" />
        <mxCell id="1" parent="0" />
        <mxCell id="UjDi4Jb52boEX_hvDFgU-4" value="" style="edgeStyle=orthogonalEdgeStyle;rounded=0;orthogonalLoop=1;jettySize=auto;html=1;" edge="1" parent="1" source="UjDi4Jb52boEX_hvDFgU-1" target="UjDi4Jb52boEX_hvDFgU-3">
          <mxGeometry relative="1" as="geometry" />
        </mxCell>
        <mxCell id="UjDi4Jb52boEX_hvDFgU-1" value="Початок програми" style="ellipse;whiteSpace=wrap;html=1;" vertex="1" parent="1">
          <mxGeometry x="67.5" y="60" width="120" height="50" as="geometry" />
        </mxCell>
        <mxCell id="UjDi4Jb52boEX_hvDFgU-2" value="Main" style="text;html=1;align=center;verticalAlign=middle;whiteSpace=wrap;rounded=0;" vertex="1" parent="1">
          <mxGeometry x="97.5" width="60" height="30" as="geometry" />
        </mxCell>
        <mxCell id="UjDi4Jb52boEX_hvDFgU-8" value="" style="edgeStyle=orthogonalEdgeStyle;rounded=0;orthogonalLoop=1;jettySize=auto;html=1;" edge="1" parent="1" source="UjDi4Jb52boEX_hvDFgU-3" target="UjDi4Jb52boEX_hvDFgU-7">
          <mxGeometry relative="1" as="geometry" />
        </mxCell>
        <mxCell id="UjDi4Jb52boEX_hvDFgU-3" value="Створення списку книжок, інвентаря, індексу кожної книги та індексу кожної книги в інвентарі" style="whiteSpace=wrap;html=1;" vertex="1" parent="1">
          <mxGeometry x="62.5" y="185" width="130" height="75" as="geometry" />
        </mxCell>
        <mxCell id="UjDi4Jb52boEX_hvDFgU-12" value="" style="edgeStyle=orthogonalEdgeStyle;rounded=0;orthogonalLoop=1;jettySize=auto;html=1;" edge="1" parent="1" source="UjDi4Jb52boEX_hvDFgU-7" target="UjDi4Jb52boEX_hvDFgU-11">
          <mxGeometry relative="1" as="geometry" />
        </mxCell>
        <mxCell id="UjDi4Jb52boEX_hvDFgU-7" value="Запит на введення&amp;nbsp;&lt;br&gt;опції в меню" style="shape=parallelogram;perimeter=parallelogramPerimeter;whiteSpace=wrap;html=1;fixedSize=1;" vertex="1" parent="1">
          <mxGeometry x="60" y="330" width="135" height="62.5" as="geometry" />
        </mxCell>
        <mxCell id="UjDi4Jb52boEX_hvDFgU-14" style="edgeStyle=orthogonalEdgeStyle;rounded=0;orthogonalLoop=1;jettySize=auto;html=1;entryX=0.5;entryY=0;entryDx=0;entryDy=0;" edge="1" parent="1" source="UjDi4Jb52boEX_hvDFgU-11" target="UjDi4Jb52boEX_hvDFgU-13">
          <mxGeometry relative="1" as="geometry" />
        </mxCell>
        <mxCell id="UjDi4Jb52boEX_hvDFgU-11" value="Поки опція не 0" style="rhombus;whiteSpace=wrap;html=1;" vertex="1" parent="1">
          <mxGeometry x="82.5" y="440" width="90" height="86.25" as="geometry" />
        </mxCell>
        <mxCell id="UjDi4Jb52boEX_hvDFgU-16" value="" style="edgeStyle=orthogonalEdgeStyle;rounded=0;orthogonalLoop=1;jettySize=auto;html=1;" edge="1" parent="1" source="UjDi4Jb52boEX_hvDFgU-13" target="UjDi4Jb52boEX_hvDFgU-15">
          <mxGeometry relative="1" as="geometry" />
        </mxCell>
        <mxCell id="UjDi4Jb52boEX_hvDFgU-13" value="Перевірка номеру опції" style="rounded=0;whiteSpace=wrap;html=1;" vertex="1" parent="1">
          <mxGeometry x="67.5" y="555" width="120" height="60" as="geometry" />
        </mxCell>
        <mxCell id="UjDi4Jb52boEX_hvDFgU-18" value="" style="edgeStyle=orthogonalEdgeStyle;rounded=0;orthogonalLoop=1;jettySize=auto;html=1;" edge="1" parent="1" source="UjDi4Jb52boEX_hvDFgU-15" target="UjDi4Jb52boEX_hvDFgU-17">
          <mxGeometry relative="1" as="geometry" />
        </mxCell>
        <mxCell id="UjDi4Jb52boEX_hvDFgU-30" value="Ні" style="edgeLabel;html=1;align=center;verticalAlign=middle;resizable=0;points=[];" connectable="0" vertex="1" parent="UjDi4Jb52boEX_hvDFgU-18">
          <mxGeometry x="-0.2333" relative="1" as="geometry">
            <mxPoint as="offset" />
          </mxGeometry>
        </mxCell>
        <mxCell id="UjDi4Jb52boEX_hvDFgU-29" value="" style="edgeStyle=orthogonalEdgeStyle;rounded=0;orthogonalLoop=1;jettySize=auto;html=1;" edge="1" parent="1" source="UjDi4Jb52boEX_hvDFgU-15" target="UjDi4Jb52boEX_hvDFgU-28">
          <mxGeometry relative="1" as="geometry">
            <Array as="points">
              <mxPoint x="206" y="710" />
            </Array>
          </mxGeometry>
        </mxCell>
        <mxCell id="UjDi4Jb52boEX_hvDFgU-60" value="Так" style="edgeLabel;html=1;align=center;verticalAlign=middle;resizable=0;points=[];" connectable="0" vertex="1" parent="UjDi4Jb52boEX_hvDFgU-29">
          <mxGeometry x="-0.1397" y="-1" relative="1" as="geometry">
            <mxPoint as="offset" />
          </mxGeometry>
        </mxCell>
        <mxCell id="UjDi4Jb52boEX_hvDFgU-15" value="Опція 0?" style="rhombus;whiteSpace=wrap;html=1;rounded=0;" vertex="1" parent="1">
          <mxGeometry x="87.5" y="670" width="80" height="80" as="geometry" />
        </mxCell>
        <mxCell id="UjDi4Jb52boEX_hvDFgU-20" value="" style="edgeStyle=orthogonalEdgeStyle;rounded=0;orthogonalLoop=1;jettySize=auto;html=1;" edge="1" parent="1" source="UjDi4Jb52boEX_hvDFgU-17" target="UjDi4Jb52boEX_hvDFgU-19">
          <mxGeometry relative="1" as="geometry" />
        </mxCell>
        <mxCell id="UjDi4Jb52boEX_hvDFgU-31" value="Ні" style="edgeLabel;html=1;align=center;verticalAlign=middle;resizable=0;points=[];" connectable="0" vertex="1" parent="UjDi4Jb52boEX_hvDFgU-20">
          <mxGeometry x="-0.275" relative="1" as="geometry">
            <mxPoint as="offset" />
          </mxGeometry>
        </mxCell>
        <mxCell id="UjDi4Jb52boEX_hvDFgU-35" value="" style="edgeStyle=orthogonalEdgeStyle;rounded=0;orthogonalLoop=1;jettySize=auto;html=1;" edge="1" parent="1" source="UjDi4Jb52boEX_hvDFgU-17" target="UjDi4Jb52boEX_hvDFgU-34">
          <mxGeometry relative="1" as="geometry" />
        </mxCell>
        <mxCell id="UjDi4Jb52boEX_hvDFgU-71" value="Так" style="edgeLabel;html=1;align=center;verticalAlign=middle;resizable=0;points=[];" connectable="0" vertex="1" parent="UjDi4Jb52boEX_hvDFgU-35">
          <mxGeometry x="-0.1402" y="-1" relative="1" as="geometry">
            <mxPoint as="offset" />
          </mxGeometry>
        </mxCell>
        <mxCell id="UjDi4Jb52boEX_hvDFgU-17" value="Опція 1?" style="rhombus;whiteSpace=wrap;html=1;rounded=0;" vertex="1" parent="1">
          <mxGeometry x="87.5" y="790" width="80" height="80" as="geometry" />
        </mxCell>
        <mxCell id="UjDi4Jb52boEX_hvDFgU-22" value="" style="edgeStyle=orthogonalEdgeStyle;rounded=0;orthogonalLoop=1;jettySize=auto;html=1;" edge="1" parent="1" source="UjDi4Jb52boEX_hvDFgU-19" target="UjDi4Jb52boEX_hvDFgU-21">
          <mxGeometry relative="1" as="geometry" />
        </mxCell>
        <mxCell id="UjDi4Jb52boEX_hvDFgU-59" value="Ні" style="edgeLabel;html=1;align=center;verticalAlign=middle;resizable=0;points=[];" connectable="0" vertex="1" parent="UjDi4Jb52boEX_hvDFgU-22">
          <mxGeometry x="-0.1384" y="2" relative="1" as="geometry">
            <mxPoint as="offset" />
          </mxGeometry>
        </mxCell>
        <mxCell id="UjDi4Jb52boEX_hvDFgU-41" value="" style="edgeStyle=orthogonalEdgeStyle;rounded=0;orthogonalLoop=1;jettySize=auto;html=1;" edge="1" parent="1" source="UjDi4Jb52boEX_hvDFgU-19" target="UjDi4Jb52boEX_hvDFgU-40">
          <mxGeometry relative="1" as="geometry" />
        </mxCell>
        <mxCell id="UjDi4Jb52boEX_hvDFgU-72" value="Так" style="edgeLabel;html=1;align=center;verticalAlign=middle;resizable=0;points=[];" connectable="0" vertex="1" parent="UjDi4Jb52boEX_hvDFgU-41">
          <mxGeometry x="-0.2633" y="1" relative="1" as="geometry">
            <mxPoint as="offset" />
          </mxGeometry>
        </mxCell>
        <mxCell id="UjDi4Jb52boEX_hvDFgU-19" value="Опція 2?" style="rhombus;whiteSpace=wrap;html=1;rounded=0;" vertex="1" parent="1">
          <mxGeometry x="260" y="790" width="80" height="80" as="geometry" />
        </mxCell>
        <mxCell id="UjDi4Jb52boEX_hvDFgU-24" value="" style="edgeStyle=orthogonalEdgeStyle;rounded=0;orthogonalLoop=1;jettySize=auto;html=1;" edge="1" parent="1" source="UjDi4Jb52boEX_hvDFgU-21" target="UjDi4Jb52boEX_hvDFgU-23">
          <mxGeometry relative="1" as="geometry" />
        </mxCell>
        <mxCell id="UjDi4Jb52boEX_hvDFgU-32" value="Ні" style="edgeLabel;html=1;align=center;verticalAlign=middle;resizable=0;points=[];" connectable="0" vertex="1" parent="UjDi4Jb52boEX_hvDFgU-24">
          <mxGeometry x="-0.275" relative="1" as="geometry">
            <mxPoint as="offset" />
          </mxGeometry>
        </mxCell>
        <mxCell id="UjDi4Jb52boEX_hvDFgU-55" value="" style="edgeStyle=orthogonalEdgeStyle;rounded=0;orthogonalLoop=1;jettySize=auto;html=1;" edge="1" parent="1" source="UjDi4Jb52boEX_hvDFgU-21" target="UjDi4Jb52boEX_hvDFgU-54">
          <mxGeometry relative="1" as="geometry" />
        </mxCell>
        <mxCell id="UjDi4Jb52boEX_hvDFgU-73" value="Так" style="edgeLabel;html=1;align=center;verticalAlign=middle;resizable=0;points=[];" connectable="0" vertex="1" parent="UjDi4Jb52boEX_hvDFgU-55">
          <mxGeometry x="-0.3767" relative="1" as="geometry">
            <mxPoint as="offset" />
          </mxGeometry>
        </mxCell>
        <mxCell id="UjDi4Jb52boEX_hvDFgU-21" value="Опція 3?" style="rhombus;whiteSpace=wrap;html=1;rounded=0;" vertex="1" parent="1">
          <mxGeometry x="449.5" y="790" width="80" height="80" as="geometry" />
        </mxCell>
        <mxCell id="UjDi4Jb52boEX_hvDFgU-26" value="" style="edgeStyle=orthogonalEdgeStyle;rounded=0;orthogonalLoop=1;jettySize=auto;html=1;" edge="1" parent="1" source="UjDi4Jb52boEX_hvDFgU-23" target="UjDi4Jb52boEX_hvDFgU-25">
          <mxGeometry relative="1" as="geometry" />
        </mxCell>
        <mxCell id="UjDi4Jb52boEX_hvDFgU-33" value="Ні" style="edgeLabel;html=1;align=center;verticalAlign=middle;resizable=0;points=[];" connectable="0" vertex="1" parent="UjDi4Jb52boEX_hvDFgU-26">
          <mxGeometry x="-0.2333" y="2" relative="1" as="geometry">
            <mxPoint as="offset" />
          </mxGeometry>
        </mxCell>
        <mxCell id="UjDi4Jb52boEX_hvDFgU-75" value="" style="edgeStyle=orthogonalEdgeStyle;rounded=0;orthogonalLoop=1;jettySize=auto;html=1;" edge="1" parent="1" source="UjDi4Jb52boEX_hvDFgU-23" target="UjDi4Jb52boEX_hvDFgU-74">
          <mxGeometry relative="1" as="geometry" />
        </mxCell>
        <mxCell id="UjDi4Jb52boEX_hvDFgU-76" value="Так" style="edgeLabel;html=1;align=center;verticalAlign=middle;resizable=0;points=[];" connectable="0" vertex="1" parent="UjDi4Jb52boEX_hvDFgU-75">
          <mxGeometry x="-0.1333" y="-1" relative="1" as="geometry">
            <mxPoint as="offset" />
          </mxGeometry>
        </mxCell>
        <mxCell id="UjDi4Jb52boEX_hvDFgU-23" value="Опція 4?" style="rhombus;whiteSpace=wrap;html=1;rounded=0;" vertex="1" parent="1">
          <mxGeometry x="635" y="790" width="80" height="80" as="geometry" />
        </mxCell>
        <mxCell id="UjDi4Jb52boEX_hvDFgU-58" style="edgeStyle=orthogonalEdgeStyle;rounded=0;orthogonalLoop=1;jettySize=auto;html=1;entryX=1;entryY=0.5;entryDx=0;entryDy=0;" edge="1" parent="1" source="UjDi4Jb52boEX_hvDFgU-25" target="UjDi4Jb52boEX_hvDFgU-13">
          <mxGeometry relative="1" as="geometry" />
        </mxCell>
        <mxCell id="UjDi4Jb52boEX_hvDFgU-25" value="&quot;Неправильний номер&quot;" style="shape=parallelogram;perimeter=parallelogramPerimeter;whiteSpace=wrap;html=1;fixedSize=1;rounded=0;" vertex="1" parent="1">
          <mxGeometry x="615" y="554" width="120" height="60" as="geometry" />
        </mxCell>
        <mxCell id="UjDi4Jb52boEX_hvDFgU-28" value="Кінець програми" style="ellipse;whiteSpace=wrap;html=1;rounded=0;" vertex="1" parent="1">
          <mxGeometry x="280" y="690" width="112.5" height="40" as="geometry" />
        </mxCell>
        <mxCell id="UjDi4Jb52boEX_hvDFgU-34" value="ShowList(книжки, індекси книжок і розмір масиву)" style="shape=process;whiteSpace=wrap;html=1;backgroundOutline=1;rounded=0;" vertex="1" parent="1">
          <mxGeometry x="67.5" y="930" width="120" height="60" as="geometry" />
        </mxCell>
        <mxCell id="UjDi4Jb52boEX_hvDFgU-36" value="ShowList" style="text;html=1;align=center;verticalAlign=middle;whiteSpace=wrap;rounded=0;" vertex="1" parent="1">
          <mxGeometry x="347.5" width="60" height="30" as="geometry" />
        </mxCell>
        <mxCell id="UjDi4Jb52boEX_hvDFgU-39" value="" style="edgeStyle=orthogonalEdgeStyle;rounded=0;orthogonalLoop=1;jettySize=auto;html=1;" edge="1" parent="1" source="UjDi4Jb52boEX_hvDFgU-37" target="UjDi4Jb52boEX_hvDFgU-38">
          <mxGeometry relative="1" as="geometry" />
        </mxCell>
        <mxCell id="UjDi4Jb52boEX_hvDFgU-37" value="ShowList(книжки, індекси книжок і розмір масиву)" style="ellipse;whiteSpace=wrap;html=1;" vertex="1" parent="1">
          <mxGeometry x="318" y="50" width="122" height="50" as="geometry" />
        </mxCell>
        <mxCell id="UjDi4Jb52boEX_hvDFgU-38" value="Вивід назв книжок, і якщо індекс 1, то + біля назви, а так -" style="shape=parallelogram;perimeter=parallelogramPerimeter;whiteSpace=wrap;html=1;fixedSize=1;" vertex="1" parent="1">
          <mxGeometry x="308.5" y="175" width="141" height="55" as="geometry" />
        </mxCell>
        <mxCell id="UjDi4Jb52boEX_hvDFgU-40" value="TakeBook(книжки, індекси книжок, розмір масиву, інвентар, індекс книжок в інвентарі)&amp;nbsp;" style="shape=process;whiteSpace=wrap;html=1;backgroundOutline=1;rounded=0;" vertex="1" parent="1">
          <mxGeometry x="218.75" y="910" width="162.5" height="80" as="geometry" />
        </mxCell>
        <mxCell id="UjDi4Jb52boEX_hvDFgU-42" value="TakeBook" style="text;html=1;align=center;verticalAlign=middle;whiteSpace=wrap;rounded=0;" vertex="1" parent="1">
          <mxGeometry x="570" width="60" height="30" as="geometry" />
        </mxCell>
        <mxCell id="UjDi4Jb52boEX_hvDFgU-45" value="" style="edgeStyle=orthogonalEdgeStyle;rounded=0;orthogonalLoop=1;jettySize=auto;html=1;" edge="1" parent="1" source="UjDi4Jb52boEX_hvDFgU-43" target="UjDi4Jb52boEX_hvDFgU-44">
          <mxGeometry relative="1" as="geometry" />
        </mxCell>
        <mxCell id="UjDi4Jb52boEX_hvDFgU-43" value="&lt;span style=&quot;color: rgb(0, 0, 0); font-family: Helvetica; font-size: 12px; font-style: normal; font-variant-ligatures: normal; font-variant-caps: normal; font-weight: 400; letter-spacing: normal; orphans: 2; text-align: center; text-indent: 0px; text-transform: none; widows: 2; word-spacing: 0px; -webkit-text-stroke-width: 0px; white-space: normal; background-color: rgb(251, 251, 251); text-decoration-thickness: initial; text-decoration-style: initial; text-decoration-color: initial; display: inline !important; float: none;&quot;&gt;TakeBook(книжки, індекси книжок,&lt;/span&gt;&lt;div&gt;&lt;span style=&quot;color: rgb(0, 0, 0); font-family: Helvetica; font-size: 12px; font-style: normal; font-variant-ligatures: normal; font-variant-caps: normal; font-weight: 400; letter-spacing: normal; orphans: 2; text-align: center; text-indent: 0px; text-transform: none; widows: 2; word-spacing: 0px; -webkit-text-stroke-width: 0px; white-space: normal; background-color: rgb(251, 251, 251); text-decoration-thickness: initial; text-decoration-style: initial; text-decoration-color: initial; display: inline !important; float: none;&quot;&gt;&amp;nbsp;розмір масиву, інвентар, індекс книжок в інвентарі)&amp;nbsp;&lt;/span&gt;&lt;br&gt;&lt;/div&gt;" style="ellipse;whiteSpace=wrap;html=1;" vertex="1" parent="1">
          <mxGeometry x="485" y="35" width="230" height="65" as="geometry" />
        </mxCell>
        <mxCell id="UjDi4Jb52boEX_hvDFgU-47" value="" style="edgeStyle=orthogonalEdgeStyle;rounded=0;orthogonalLoop=1;jettySize=auto;html=1;" edge="1" parent="1" source="UjDi4Jb52boEX_hvDFgU-44" target="UjDi4Jb52boEX_hvDFgU-46">
          <mxGeometry relative="1" as="geometry" />
        </mxCell>
        <mxCell id="UjDi4Jb52boEX_hvDFgU-44" value="Ввід індексу книжки, яку хочемо взяти" style="shape=parallelogram;perimeter=parallelogramPerimeter;whiteSpace=wrap;html=1;fixedSize=1;" vertex="1" parent="1">
          <mxGeometry x="515" y="160" width="170" height="60" as="geometry" />
        </mxCell>
        <mxCell id="UjDi4Jb52boEX_hvDFgU-49" value="" style="edgeStyle=orthogonalEdgeStyle;rounded=0;orthogonalLoop=1;jettySize=auto;html=1;" edge="1" parent="1" source="UjDi4Jb52boEX_hvDFgU-46" target="UjDi4Jb52boEX_hvDFgU-48">
          <mxGeometry relative="1" as="geometry" />
        </mxCell>
        <mxCell id="UjDi4Jb52boEX_hvDFgU-52" value="Так" style="edgeLabel;html=1;align=center;verticalAlign=middle;resizable=0;points=[];" connectable="0" vertex="1" parent="UjDi4Jb52boEX_hvDFgU-49">
          <mxGeometry x="-0.1466" y="1" relative="1" as="geometry">
            <mxPoint as="offset" />
          </mxGeometry>
        </mxCell>
        <mxCell id="UjDi4Jb52boEX_hvDFgU-51" value="" style="edgeStyle=orthogonalEdgeStyle;rounded=0;orthogonalLoop=1;jettySize=auto;html=1;" edge="1" parent="1" source="UjDi4Jb52boEX_hvDFgU-46" target="UjDi4Jb52boEX_hvDFgU-50">
          <mxGeometry relative="1" as="geometry" />
        </mxCell>
        <mxCell id="UjDi4Jb52boEX_hvDFgU-53" value="Ні" style="edgeLabel;html=1;align=center;verticalAlign=middle;resizable=0;points=[];" connectable="0" vertex="1" parent="UjDi4Jb52boEX_hvDFgU-51">
          <mxGeometry x="-0.2838" y="-1" relative="1" as="geometry">
            <mxPoint as="offset" />
          </mxGeometry>
        </mxCell>
        <mxCell id="UjDi4Jb52boEX_hvDFgU-46" value="Індекс в межах масиву і книжка доступна?" style="rhombus;whiteSpace=wrap;html=1;" vertex="1" parent="1">
          <mxGeometry x="547.5" y="270" width="105" height="100" as="geometry" />
        </mxCell>
        <mxCell id="UjDi4Jb52boEX_hvDFgU-48" value="Зміна статусу книжки&lt;div&gt;Інвентар + назва книжки&lt;/div&gt;&lt;div&gt;Індекс в інвентарі + індекс книжки&amp;nbsp;&lt;/div&gt;" style="whiteSpace=wrap;html=1;" vertex="1" parent="1">
          <mxGeometry x="500" y="430" width="200" height="60" as="geometry" />
        </mxCell>
        <mxCell id="UjDi4Jb52boEX_hvDFgU-50" value="&quot;Неправильний вибір&quot;" style="shape=parallelogram;perimeter=parallelogramPerimeter;whiteSpace=wrap;html=1;fixedSize=1;" vertex="1" parent="1">
          <mxGeometry x="392.5" y="290" width="120" height="60" as="geometry" />
        </mxCell>
        <mxCell id="UjDi4Jb52boEX_hvDFgU-54" value="ReturnBook(індекс книжок, індекс книжок в інвентарі, інвентар та розмір інвентаря)" style="shape=process;whiteSpace=wrap;html=1;backgroundOutline=1;rounded=0;" vertex="1" parent="1">
          <mxGeometry x="407.5" y="910" width="162.5" height="80" as="geometry" />
        </mxCell>
        <mxCell id="UjDi4Jb52boEX_hvDFgU-56" value="ReturnBook" style="text;html=1;align=center;verticalAlign=middle;whiteSpace=wrap;rounded=0;" vertex="1" parent="1">
          <mxGeometry x="840" width="60" height="30" as="geometry" />
        </mxCell>
        <mxCell id="UjDi4Jb52boEX_hvDFgU-62" value="" style="edgeStyle=orthogonalEdgeStyle;rounded=0;orthogonalLoop=1;jettySize=auto;html=1;" edge="1" parent="1" source="UjDi4Jb52boEX_hvDFgU-57" target="UjDi4Jb52boEX_hvDFgU-61">
          <mxGeometry relative="1" as="geometry" />
        </mxCell>
        <mxCell id="UjDi4Jb52boEX_hvDFgU-57" value="&lt;span style=&quot;color: rgb(0, 0, 0); font-family: Helvetica; font-size: 12px; font-style: normal; font-variant-ligatures: normal; font-variant-caps: normal; font-weight: 400; letter-spacing: normal; orphans: 2; text-align: center; text-indent: 0px; text-transform: none; widows: 2; word-spacing: 0px; -webkit-text-stroke-width: 0px; white-space: normal; background-color: rgb(251, 251, 251); text-decoration-thickness: initial; text-decoration-style: initial; text-decoration-color: initial; display: inline !important; float: none;&quot;&gt;ReturnBook(індекс книжок, індекс книжок в інвентарі, інвентар та розмір інвентаря)&lt;/span&gt;" style="ellipse;whiteSpace=wrap;html=1;" vertex="1" parent="1">
          <mxGeometry x="760" y="35" width="220" height="65" as="geometry" />
        </mxCell>
        <mxCell id="UjDi4Jb52boEX_hvDFgU-64" style="edgeStyle=orthogonalEdgeStyle;rounded=0;orthogonalLoop=1;jettySize=auto;html=1;entryX=0.5;entryY=0;entryDx=0;entryDy=0;" edge="1" parent="1" source="UjDi4Jb52boEX_hvDFgU-61" target="UjDi4Jb52boEX_hvDFgU-63">
          <mxGeometry relative="1" as="geometry" />
        </mxCell>
        <mxCell id="UjDi4Jb52boEX_hvDFgU-61" value="Ввід індексу книжки з інвентаря, яку хочемо віддати" style="shape=parallelogram;perimeter=parallelogramPerimeter;whiteSpace=wrap;html=1;fixedSize=1;" vertex="1" parent="1">
          <mxGeometry x="795" y="162.5" width="150" height="57.5" as="geometry" />
        </mxCell>
        <mxCell id="UjDi4Jb52boEX_hvDFgU-66" value="" style="edgeStyle=orthogonalEdgeStyle;rounded=0;orthogonalLoop=1;jettySize=auto;html=1;" edge="1" parent="1" source="UjDi4Jb52boEX_hvDFgU-63" target="UjDi4Jb52boEX_hvDFgU-65">
          <mxGeometry relative="1" as="geometry" />
        </mxCell>
        <mxCell id="UjDi4Jb52boEX_hvDFgU-67" value="Ні" style="edgeLabel;html=1;align=center;verticalAlign=middle;resizable=0;points=[];" connectable="0" vertex="1" parent="UjDi4Jb52boEX_hvDFgU-66">
          <mxGeometry x="0.2686" relative="1" as="geometry">
            <mxPoint as="offset" />
          </mxGeometry>
        </mxCell>
        <mxCell id="UjDi4Jb52boEX_hvDFgU-69" value="" style="edgeStyle=orthogonalEdgeStyle;rounded=0;orthogonalLoop=1;jettySize=auto;html=1;" edge="1" parent="1" source="UjDi4Jb52boEX_hvDFgU-63" target="UjDi4Jb52boEX_hvDFgU-68">
          <mxGeometry relative="1" as="geometry" />
        </mxCell>
        <mxCell id="UjDi4Jb52boEX_hvDFgU-70" value="Так" style="edgeLabel;html=1;align=center;verticalAlign=middle;resizable=0;points=[];" connectable="0" vertex="1" parent="UjDi4Jb52boEX_hvDFgU-69">
          <mxGeometry x="-0.0476" y="1" relative="1" as="geometry">
            <mxPoint as="offset" />
          </mxGeometry>
        </mxCell>
        <mxCell id="UjDi4Jb52boEX_hvDFgU-63" value="Індекс в межах масиву?" style="rhombus;whiteSpace=wrap;html=1;" vertex="1" parent="1">
          <mxGeometry x="817.5" y="270" width="105" height="100" as="geometry" />
        </mxCell>
        <mxCell id="UjDi4Jb52boEX_hvDFgU-65" value="&quot;Неправильний вибір&quot;" style="shape=parallelogram;perimeter=parallelogramPerimeter;whiteSpace=wrap;html=1;fixedSize=1;" vertex="1" parent="1">
          <mxGeometry x="670" y="290" width="120" height="60" as="geometry" />
        </mxCell>
        <mxCell id="UjDi4Jb52boEX_hvDFgU-68" value="Зміна статусу книжки&lt;div&gt;Інвентар - назва книжки&lt;/div&gt;&lt;div&gt;&amp;nbsp;&amp;nbsp;&lt;span style=&quot;background-color: initial;&quot;&gt;Індекс в інвентарі - індекс книжки&amp;nbsp;&lt;/span&gt;&lt;/div&gt;" style="whiteSpace=wrap;html=1;" vertex="1" parent="1">
          <mxGeometry x="765" y="430" width="210" height="60" as="geometry" />
        </mxCell>
        <mxCell id="UjDi4Jb52boEX_hvDFgU-74" value="ShowInventory(Інвентар і його розмір)" style="shape=process;whiteSpace=wrap;html=1;backgroundOutline=1;rounded=0;" vertex="1" parent="1">
          <mxGeometry x="602.5" y="920" width="145" height="70" as="geometry" />
        </mxCell>
        <mxCell id="UjDi4Jb52boEX_hvDFgU-77" value="ShowInventory" style="text;html=1;align=center;verticalAlign=middle;whiteSpace=wrap;rounded=0;" vertex="1" parent="1">
          <mxGeometry x="1080" width="60" height="30" as="geometry" />
        </mxCell>
        <mxCell id="UjDi4Jb52boEX_hvDFgU-80" value="" style="edgeStyle=orthogonalEdgeStyle;rounded=0;orthogonalLoop=1;jettySize=auto;html=1;" edge="1" parent="1" source="UjDi4Jb52boEX_hvDFgU-78" target="UjDi4Jb52boEX_hvDFgU-79">
          <mxGeometry relative="1" as="geometry" />
        </mxCell>
        <mxCell id="UjDi4Jb52boEX_hvDFgU-78" value="&lt;br&gt;&lt;span style=&quot;color: rgb(0, 0, 0); font-family: Helvetica; font-size: 12px; font-style: normal; font-variant-ligatures: normal; font-variant-caps: normal; font-weight: 400; letter-spacing: normal; orphans: 2; text-align: center; text-indent: 0px; text-transform: none; widows: 2; word-spacing: 0px; -webkit-text-stroke-width: 0px; white-space: normal; background-color: rgb(251, 251, 251); text-decoration-thickness: initial; text-decoration-style: initial; text-decoration-color: initial; display: inline !important; float: none;&quot;&gt;ShowInventory(Інвентар і його розмір)&lt;/span&gt;&lt;div&gt;&lt;br/&gt;&lt;/div&gt;" style="ellipse;whiteSpace=wrap;html=1;" vertex="1" parent="1">
          <mxGeometry x="1035" y="40" width="150" height="55" as="geometry" />
        </mxCell>
        <mxCell id="UjDi4Jb52boEX_hvDFgU-79" value="Виводимо книжки в інвентарі&amp;nbsp;" style="shape=parallelogram;perimeter=parallelogramPerimeter;whiteSpace=wrap;html=1;fixedSize=1;" vertex="1" parent="1">
          <mxGeometry x="1035" y="160" width="150" height="57.5" as="geometry" />
        </mxCell>
      </root>
    </mxGraphModel>
  </diagram>
</mxfile>
